<svg width="165" height="37" viewBox="0 0 165 37" fill="none" xmlns="http://www.w3.org/2000/svg">
<g clip-path="url(#clip0)">
<path d="M1.28711 37V0.199997H12.2871C15.9871 0.199997 19.1371 0.749998 21.7371 1.85C24.3371 2.95 26.4204 4.41667 27.9871 6.25C29.5871 8.08333 30.7538 10.1333 31.4871 12.4C32.2204 14.6667 32.5871 16.95 32.5871 19.25C32.5871 21.9833 32.0871 24.45 31.0871 26.65C30.1204 28.8167 28.7871 30.6833 27.0871 32.25C25.3871 33.7833 23.4204 34.9667 21.1871 35.8C18.9538 36.6 16.5871 37 14.0871 37H1.28711ZM8.53711 30H12.8371C16.5038 30 19.4538 29.05 21.6871 27.15C23.9538 25.25 25.0871 22.45 25.0871 18.75C25.0871 16.35 24.6871 14.4 23.8871 12.9C23.1204 11.3667 22.1538 10.1833 20.9871 9.35C19.8538 8.51667 18.6871 7.95 17.4871 7.65C16.2871 7.31667 15.2704 7.15 14.4371 7.15H8.53711V30ZM43.4613 37.6C40.7947 37.6 38.528 37.1 36.6613 36.1C34.828 35.1 33.428 33.7167 32.4613 31.95C31.4947 30.1833 31.0113 28.15 31.0113 25.85C31.0113 23.65 31.578 21.6667 32.7113 19.9C33.8447 18.1333 35.3613 16.7333 37.2613 15.7C39.1613 14.6333 41.278 14.1 43.6113 14.1C46.7447 14.1 49.3113 15.0167 51.3113 16.85C53.3447 18.65 54.6613 21.2667 55.2613 24.7L39.2613 29.8C40.328 31.0333 41.778 31.65 43.6113 31.65C44.378 31.65 45.1113 31.5167 45.8113 31.25C46.5447 30.9833 47.2613 30.6333 47.9613 30.2L51.0613 35.4C49.8947 36.0667 48.628 36.6 47.2613 37C45.928 37.4 44.6613 37.6 43.4613 37.6ZM37.9113 25.45C37.9113 25.6167 37.9113 25.7667 37.9113 25.9L47.5113 22.65C47.2113 21.8167 46.728 21.1 46.0613 20.5C45.3947 19.8667 44.3947 19.55 43.0613 19.55C41.4947 19.55 40.2447 20.0833 39.3113 21.15C38.378 22.2167 37.9113 23.65 37.9113 25.45ZM60.698 15.15L61.198 18.65C61.9647 17.2833 63.048 16.1833 64.448 15.35C65.848 14.5167 67.548 14.1 69.548 14.1C71.6147 14.1 73.3314 14.7167 74.698 15.95C76.098 17.15 76.8147 18.7167 76.848 20.65V37H69.848V23.25C69.8147 22.2833 69.548 21.5167 69.048 20.95C68.5814 20.35 67.7814 20.05 66.648 20.05C65.0147 20.05 63.7147 20.8167 62.748 22.35C61.8147 23.85 61.348 25.7667 61.348 28.1V37H54.348V15.15H60.698ZM76.3355 25.8C76.3355 23.5667 76.8522 21.5667 77.8855 19.8C78.9522 18.0333 80.4355 16.65 82.3355 15.65C84.2355 14.6167 86.4189 14.1 88.8855 14.1C91.3855 14.1 93.5522 14.6167 95.3855 15.65C97.2189 16.65 98.6189 18.0333 99.5855 19.8C100.586 21.5667 101.086 23.5667 101.086 25.8C101.086 28.0333 100.586 30.05 99.5855 31.85C98.6189 33.6167 97.2189 35.0167 95.3855 36.05C93.5522 37.0833 91.3522 37.6 88.7855 37.6C86.3855 37.6 84.2355 37.1333 82.3355 36.2C80.4689 35.2667 79.0022 33.9167 77.9355 32.15C76.8689 30.3833 76.3355 28.2667 76.3355 25.8ZM83.3855 25.85C83.3855 27.5833 83.8855 29.0333 84.8855 30.2C85.8855 31.3333 87.1522 31.9 88.6855 31.9C90.3189 31.9 91.6189 31.3333 92.5855 30.2C93.5522 29.0333 94.0355 27.5833 94.0355 25.85C94.0355 24.1167 93.5522 22.6833 92.5855 21.55C91.6189 20.3833 90.3189 19.8 88.6855 19.8C87.1522 19.8 85.8855 20.3833 84.8855 21.55C83.8855 22.6833 83.3855 24.1167 83.3855 25.85Z" fill="black"/>
<path d="M106.03 19.7275C105.94 19.7275 105.896 19.7949 105.896 19.9297V32.3281C105.896 33.2266 106.09 33.9303 106.479 34.4395C106.884 34.9486 107.393 35.2031 108.007 35.2031C108.621 35.2031 109.152 35.1058 109.602 34.9111C110.066 34.7015 110.463 34.4769 110.792 34.2373C111.136 33.9977 111.443 33.7806 111.713 33.5859C111.982 33.3763 112.222 33.2715 112.432 33.2715C112.641 33.2715 112.746 33.3239 112.746 33.4287C112.746 33.7881 112.709 34.0202 112.634 34.125C110.837 36.446 109.1 37.6064 107.423 37.6064C105.761 37.6064 104.503 37.0824 103.649 36.0342C102.811 34.971 102.392 33.7057 102.392 32.2383V19.7275H100.707C100.288 19.7275 100.063 19.5928 100.033 19.3232C100.018 19.0537 100.063 18.8815 100.168 18.8066C100.962 18.2975 102.055 17.3841 103.447 16.0664C103.597 15.9017 103.799 15.6546 104.054 15.3252C104.308 14.9958 104.675 14.5465 105.154 13.9775C105.648 13.4085 106.023 13.124 106.277 13.124C106.532 13.124 106.659 13.2288 106.659 13.4385C106.659 13.4684 106.405 14.4492 105.896 16.3809C105.896 16.6504 106.015 16.7926 106.255 16.8076H111.982C112.641 16.8076 112.971 17.736 112.971 19.5928C112.971 19.6826 112.911 19.7275 112.791 19.7275H106.03ZM127.858 33.2939C127.858 33.6833 128.038 33.9977 128.397 34.2373C128.771 34.4619 129.198 34.5742 129.677 34.5742C130.156 34.5742 130.553 34.4544 130.868 34.2148C131.197 33.9603 131.422 33.833 131.541 33.833C131.661 33.833 131.721 33.9977 131.721 34.3271C131.721 34.6416 131.571 34.9111 131.272 35.1357C129.026 36.7829 127.506 37.6064 126.712 37.6064C125.754 37.6064 124.975 36.6107 124.376 34.6191C124.331 34.4694 124.294 34.402 124.264 34.417C122.407 35.8096 121.239 36.6481 120.76 36.9326C119.532 37.6364 118.297 37.7487 117.054 37.2695C115.826 36.7904 114.935 35.9967 114.381 34.8887C114.112 34.3197 113.977 33.7132 113.977 33.0693C113.977 31.7965 114.449 30.7858 115.392 30.0371C116.335 29.2884 118.132 28.5697 120.783 27.8809C121.681 27.6413 122.482 27.3343 123.186 26.96C123.89 26.5856 124.257 26.346 124.287 26.2412C124.331 26.1364 124.354 26.0391 124.354 25.9492V21.6367C124.354 19.9447 123.695 18.7542 122.377 18.0654C121.943 17.8408 121.419 17.7285 120.805 17.7285C120.206 17.7285 119.592 17.9681 118.963 18.4473C118.349 18.9264 118.042 19.6077 118.042 20.4912L118.155 21.3672C118.065 21.5469 117.526 21.8464 116.538 22.2656C115.549 22.6849 114.98 22.9095 114.83 22.9395C114.591 22.9395 114.471 22.6549 114.471 22.0859C114.471 21.502 114.643 20.8581 114.988 20.1543C115.332 19.4505 115.819 18.8066 116.448 18.2227C117.915 16.86 119.592 16.1787 121.479 16.1787C123.366 16.1787 124.9 16.7028 126.083 17.751C127.266 18.7842 127.858 20.0195 127.858 21.457V33.2939ZM117.503 32.6426C117.503 33.3613 117.78 33.9902 118.334 34.5293C118.888 35.0534 119.517 35.3154 120.221 35.3154C120.94 35.3154 121.808 35.016 122.827 34.417C123.845 33.8031 124.354 33.1742 124.354 32.5303V27.9707C124.354 27.806 124.316 27.7236 124.242 27.7236C124.167 27.7236 124.114 27.7311 124.084 27.7461L118.873 30.1719C118.334 30.5612 117.968 30.8906 117.773 31.1602C117.593 31.4297 117.503 31.9238 117.503 32.6426ZM138.185 19.7275C138.096 19.7275 138.051 19.7949 138.051 19.9297V32.3281C138.051 33.2266 138.245 33.9303 138.635 34.4395C139.039 34.9486 139.548 35.2031 140.162 35.2031C140.776 35.2031 141.307 35.1058 141.757 34.9111C142.221 34.7015 142.618 34.4769 142.947 34.2373C143.291 33.9977 143.598 33.7806 143.868 33.5859C144.138 33.3763 144.377 33.2715 144.587 33.2715C144.796 33.2715 144.901 33.3239 144.901 33.4287C144.901 33.7881 144.864 34.0202 144.789 34.125C142.992 36.446 141.255 37.6064 139.578 37.6064C137.916 37.6064 136.658 37.0824 135.804 36.0342C134.966 34.971 134.547 33.7057 134.547 32.2383V19.7275H132.862C132.443 19.7275 132.218 19.5928 132.188 19.3232C132.173 19.0537 132.218 18.8815 132.323 18.8066C133.117 18.2975 134.21 17.3841 135.602 16.0664C135.752 15.9017 135.954 15.6546 136.209 15.3252C136.463 14.9958 136.83 14.5465 137.309 13.9775C137.804 13.4085 138.178 13.124 138.432 13.124C138.687 13.124 138.814 13.2288 138.814 13.4385C138.814 13.4684 138.56 14.4492 138.051 16.3809C138.051 16.6504 138.17 16.7926 138.41 16.8076H144.138C144.796 16.8076 145.126 17.736 145.126 19.5928C145.126 19.6826 145.066 19.7275 144.946 19.7275H138.185ZM149.748 25.1631C149.494 25.1631 149.366 25.7096 149.366 26.8027C149.366 29.1237 150.055 31.0703 151.433 32.6426C152.81 34.2148 154.517 35.001 156.554 35.001C158.605 35.001 160.574 34.1175 162.461 32.3506C162.491 32.3206 162.529 32.3057 162.573 32.3057H162.686C162.776 32.3057 162.858 32.3805 162.933 32.5303C163.023 32.665 163.105 32.7549 163.18 32.7998C161.443 34.9111 159.399 36.3711 157.048 37.1797C156.239 37.4642 155.326 37.6064 154.308 37.6064C153.29 37.6064 152.256 37.3294 151.208 36.7754C150.16 36.2064 149.262 35.4652 148.513 34.5518C146.926 32.6501 146.132 30.2842 146.132 27.4541C146.132 24.609 146.993 22.0186 148.715 19.6826C150.452 17.3467 152.833 16.1787 155.858 16.1787C158.029 16.1787 159.803 17.152 161.181 19.0986C162.558 21.0303 163.247 22.7298 163.247 24.1973C163.247 24.8411 163.09 25.1631 162.776 25.1631H149.748ZM149.995 23.0068C149.995 23.2913 150.13 23.4336 150.4 23.4336H158.867C159.257 23.4336 159.451 23.2015 159.451 22.7373C159.451 21.6592 158.965 20.5586 157.991 19.4355C157.033 18.2975 155.977 17.7285 154.824 17.7285C153.701 17.7285 152.676 18.2376 151.747 19.2559C150.834 20.2741 150.25 21.4346 149.995 22.7373V23.0068Z" fill="#555555"/>
</g>
<defs>
<clipPath id="clip0">
<rect width="165" height="37" fill="white"/>
</clipPath>
</defs>
</svg>
